<svg xmlns="http://www.w3.org/2000/svg" version="1.1" xmlns:xlink="http://www.w3.org/1999/xlink" viewBox="0 0 11.120566861623782 11.086425779515974"><g transform="matrix(0.8569543553943996,0,0,0.8569543553943996,3.761442067471984,3.5252642961523537)"><g><path d=" M -2.0356788733879534 3.675285111863733 L -2.0073033357787406 3.712106693380395 L -2.068238195723419 3.778265161043442 L -2.1237109051327048 3.8077062634479537 L -2.1303773155198815 3.8036369917011 L -2.120964774714623 3.7412799225301603 L -2.0809956428292846 3.6600735896716174 L -2.0356788733879534 3.675285111863733 M -1.9722320573446288 3.8586195099835745 L -1.99918538572758 3.8973689369352185 L -2.080694070639228 3.8596153373191067 L -2.1261891622960407 3.8159438748391503 L -2.1237109051327048 3.8077062634479537 L -2.0614727174387526 3.798145510727985 L -1.973475944355409 3.8115084418031095 L -1.9722320573446288 3.8586195099835745 M -2.1277163676434765 3.975967834432165 L -2.1736576547705164 3.9620251611909643 L -2.1615635726463065 3.873403870421912 L -2.1347291257403427 3.815681149945041 L -2.1261891622960407 3.8159438748391503 L -2.097372577577237 3.8726854331993508 L -2.083222251682833 3.960826049699816 L -2.1277163676434765 3.975967834432165 M -2.2874871192006063 3.8634409178883 L -2.2887310062113864 3.8163298497078353 L -2.200288037657816 3.7999639915442045 L -2.1373064508011677 3.808107683398548 L -2.1347291257403427 3.815681149945041 L -2.1796694371712135 3.860551723916145 L -2.259413933644499 3.902478031674188 L -2.2874871192006063 3.8634409178883 M -2.2301452252317833 3.678084754796623 L -2.185026591585431 3.66167412111336 L -2.142153600509076 3.7410964519540424 L -2.1303773155198815 3.8036369917011 L -2.1373064508011677 3.808107683398548 L -2.193457970274019 3.7796822219090664 L -2.2583674025656495 3.716209664062559 L -2.2301452252317833 3.678084754796623 M -2.1379309684868764 3.809376532349463 L -2.1370040987480623 3.805892151129322 L -2.131646164470796 3.803012474015391 L -2.12943063220157 3.8033148260684966 L -2.124033070765308 3.806759580129642 Q -2.1237109051327048 3.8077062634479537 -2.1233887395001014 3.808652946766265 Q -2.1230665738674985 3.8095996300845765 -2.1230665738674985 3.8095996300845765 L -2.1252424789777287 3.815621709206547 L -2.1280825289326635 3.8165882061043566 L -2.134084794475136 3.817574516581664 L -2.135997974691257 3.8150566322593322 L -2.1379309684868764 3.809376532349463 M 6.170754348229062 3.8608345800050663 L 6.170729386288928 3.81434802951031 L 6.259370490637477 3.7990917317985615 L 6.321286512698826 3.8095991678368413 L 6.3240869354947655 3.8168900959097263 L 6.278591843837953 3.860561558389683 L 6.1973855109794105 3.900530690275022 L 6.170754348229062 3.8608345800050663 M 6.232307797635762 3.676855850620018 L 6.277302401444491 3.662591011746214 L 6.318862547913347 3.7422261436007367 L 6.328275088718606 3.804583212771676 L 6.321286512698826 3.8095991678368413 L 6.266135968922144 3.7792113821140183 L 6.204556777712258 3.714946281087595 L 6.232307797635762 3.676855850620018 M 6.427096315112196 3.6787088102345957 L 6.4549963268134585 3.717780402818843 L 6.391355743472744 3.7806284429796424 L 6.334882058367289 3.810000587787436 L 6.328275088718606 3.804583212771676 L 6.340051373707801 3.742042673024619 L 6.382602199151552 3.6635670255022474 L 6.427096315112196 3.6787088102345957 M 6.485062726766728 3.865333822277187 L 6.457311706843224 3.9034242527447636 L 6.377245044737335 3.8624446283050324 L 6.332304733306464 3.8175740543339285 L 6.334882058367289 3.810000587787436 L 6.3978636452239375 3.801856895933092 L 6.486628779410111 3.8172760707784104 L 6.485062726766728 3.865333822277187 M 6.326560824160514 3.9772362211353443 L 6.280797859248955 3.9627189540887047 L 6.295270350775962 3.873631654269927 L 6.3240869354947655 3.8168900959097263 L 6.332304733306464 3.8175740543339285 L 6.359461345845031 3.874350091492488 L 6.37217994565495 3.9642402312124547 L 6.326560824160514 3.9772362211353443 M 6.333573582257379 3.8169495366482202 L 6.330713718722946 3.819145255337949 L 6.324711453180473 3.8181589448606412 L 6.3231402521764535 3.8165679302771234 L 6.320964347066223 3.810545851155153 Q 6.321286512698826 3.8095991678368413 6.32160867833143 3.8086524845185297 Q 6.321930843964033 3.807705801200218 6.321930843964033 3.807705801200218 L 6.327328405400294 3.804261047139073 L 6.3301684553552295 3.8052275440368826 L 6.335526389632496 3.808107221150813 L 6.335506576052998 3.8112694367383506 L 6.333573582257379 3.8169495366482202" fill="#431a10" fill-rule="nonzero"></path></g><g><path d=" M -0.8362012201180647 4.91006140027191 L -0.7403309285654618 5.013453310969115 Q -0.7097340270061203 5.046450729276733 -0.6944491276968555 5.082054406798945 Q -0.6791642283875907 5.117658084321157 -0.6801312108221045 5.152648296452142 Q -0.6810981932566185 5.187638508583127 -0.6972171434913237 5.220995358604242 Q -0.7133360937260289 5.254352208625355 -0.7456002360712561 5.284269179038933 Q -0.7807974822660495 5.316905874035564 -0.8283600753909475 5.330324135295333 Q -0.8759226685158453 5.343742396555102 -0.9222651065934933 5.334209378511515 Q -0.9686075446711413 5.324676360467928 -1.001244239667772 5.289479114273134 Q -0.9948183419265394 5.306704323654132 -0.9969851522026943 5.33598836253587 Q -0.9991519624788494 5.3652724014176085 -1.0036185145402328 5.389870163768744 Q -1.0036185145402328 5.389870163768744 -1.0087383253390652 5.413028046603411 Q -1.0138581361378975 5.436185929438078 -1.020451274596716 5.470256158748472 Q -1.0270444130555343 5.504326388058867 -1.0325643099790796 5.538083324204694 Q -1.0380842069026248 5.57184026035052 -1.039617655114442 5.5937182981186035 Q -1.042151103371793 5.6233423025732225 -1.041018171817186 5.649566651299027 Q -1.0398852402625791 5.675791000024831 -1.0312396179610606 5.699822296598663 Q -1.022593995659542 5.723853593172495 -1.0028759924324109 5.74511859608185 L -1.010208752056326 5.7519179075394815 L -1.0476049650732988 5.711587729607947 Q -1.0788817977784035 5.677857035337937 -1.0913936276879874 5.643773254557137 Q -1.1039054575975713 5.609689473776337 -1.1045117167210972 5.578885538153187 Q -1.1051179758446232 5.548081602530037 -1.1020646308913944 5.523430495362273 Q -1.1011713204791178 5.518510942892046 -1.0964181476614812 5.495693025630261 Q -1.0916649748438445 5.472875108368475 -1.0848118880370872 5.441291327701509 Q -1.0779588012303298 5.409707547034543 -1.0711323868318865 5.378830369921653 Q -1.0643059724334436 5.347953192808764 -1.059579472024121 5.325841879101056 Q -1.0548529716147987 5.303730565393348 -1.0540130060191504 5.300224220031276 Q -1.048599798728862 5.269293698101758 -1.0488394198711921 5.238149796905727 Q -1.0490790410135222 5.207005895709696 -1.067437181949127 5.187207444725125 L -1.0601044223252118 5.180408133267493 Q -1.0601044223252118 5.180408133267493 -1.0499321275470788 5.1921138762574435 Q -1.039759832768946 5.203819619247394 -1.0240680715997652 5.219271759274244 Q -1.005656585847532 5.237657003150661 -0.9794457885921339 5.2556290399644565 Q -0.953234991336736 5.2736010767782515 -0.9187447792285175 5.278441042556033 Q -0.884254567120299 5.283281008333816 -0.8417381127719963 5.262949970247956 Q -0.8316322837484 5.257670555531735 -0.8181733680774135 5.247918243551427 Q -0.804714452406427 5.238165931571118 -0.7936619681539256 5.226553757276516 Q -0.744479133857065 5.179585163402232 -0.7375591507632735 5.127483207258708 Q -0.7306391676694818 5.075381251115185 -0.7665154839450432 5.032278003783969 Q -0.7840870041016281 5.01038641454548 -0.8045116108828365 4.989094739227812 Q -0.824936217664045 4.967803063910143 -0.8385348405793078 4.9531375446623125 Q -0.8521334634945708 4.938472025414482 -0.8521334634945708 4.938472025414482 Q -0.8514001875321792 4.937792094268719 -0.8476004456786506 4.930859420769517 Q -0.8438007038251221 4.923926747270315 -0.8400009619715934 4.916994073771112 Q -0.8362012201180647 4.91006140027191 -0.8362012201180647 4.91006140027191 M -0.827362115223144 4.919593987782999 L -1.3406552888972132 5.395545789817199 L -1.3848508133718174 5.347882852261749 L -0.8715576396977481 4.87193105022755 L -0.827362115223144 4.919593987782999 M -1.3292818746799464 5.300447706508215 L -1.382811019934528 5.350082680148924 L -1.4372055115955793 5.291420603157602 L -1.429872751971664 5.28462129169997 Q -1.429872751971664 5.28462129169997 -1.4254531995242037 5.289387585455516 Q -1.4210336470767433 5.29415387921106 -1.4210336470767433 5.29415387921106 Q -1.4033554372869015 5.31321905423324 -1.3772111057860401 5.314205933340865 Q -1.3510667742851787 5.31519281244849 -1.331321668117236 5.29824787862104 L -1.3292818746799464 5.300447706508215 M -0.9230469915150402 4.923765851755434 L -0.9250867849523297 4.92156602386826 Q -0.906701541075913 4.903154538116026 -0.9057146619682879 4.877010206615165 Q -0.9047277828606628 4.8508658751143034 -0.9224059926505045 4.831800700092124 Q -0.9224059926505045 4.831800700092124 -0.9268255450979649 4.827034406336579 Q -0.9312450975454253 4.822268112581034 -0.9312450975454253 4.822268112581034 L -0.9239123379215101 4.815468801123402 L -0.8695178462604587 4.874130878114725 L -0.9230469915150402 4.923765851755434 M -1.289165937079921 5.343710988289315 L -1.2871261436426318 5.34591081617649 Q -1.3061913186648113 5.3635890259663315 -1.3068382321995549 5.390099995448388 Q -1.3074851457342984 5.416610964930445 -1.2898069359444568 5.435676139952625 Q -1.2898069359444568 5.435676139952625 -1.285727349069878 5.440075795726974 Q -1.281647762195299 5.444475451501323 -1.281647762195299 5.444475451501323 L -1.2889805218192143 5.451274762958955 L -1.3426950823345025 5.393345961930025 L -1.289165937079921 5.343710988289315 M -0.34209914577278455 5.3862629409345395 L -0.7718154897901763 5.938842223648185 L -0.8231264231850148 5.898939991703712 L -0.39341007916762305 5.346360708990067 L -0.34209914577278455 5.3862629409345395 M -0.5396474712227144 6.080118588106146 L -0.5586777664577702 6.104589956340607 L -0.774183686716092 5.937000582173824 L -0.755153391481036 5.912529213939363 L -0.5396474712227144 6.080118588106146 M -0.3716249454726642 5.794009464098235 L -0.3900413602162667 5.817691433357392 L -0.5716031245364644 5.676498920323106 L -0.5531867097928619 5.65281695106395 L -0.3716249454726642 5.794009464098235 M -0.12896142244037856 5.552010673626962 L -0.1479917176754345 5.576482041861423 L -0.3634976379337562 5.408892667694641 L -0.34446734269870016 5.384421299460179 L -0.12896142244037856 5.552010673626962 M -0.41107578934869915 6.014154032319822 L -0.5563095695318547 6.106431597814967 L -0.6873497994325191 6.0045274362337 L -0.6399011410864758 6.002155765691562 Q -0.5980629953952998 6.034691431738593 -0.5614891016135939 6.042231345109746 Q -0.5249152078318882 6.0497712584809 -0.4899214146068762 6.038980779542266 Q -0.4549276213818644 6.028190300603631 -0.41896977910175126 6.008015227405288 L -0.41107578934869915 6.014154032319822 M -0.3888135992333599 5.816112635406782 L -0.42932971166928535 5.868212967776925 L -0.43722370142233746 5.862074162862391 L -0.4280154940505362 5.850233178232813 Q -0.41573788422146785 5.8344451987267085 -0.4178882027496662 5.814404586704435 Q -0.42003852127786456 5.794363974682162 -0.4358265007839688 5.782086364853094 L -0.4345987398010619 5.780507566902483 L -0.3888135992333599 5.816112635406782 M -0.33233659401964555 5.743487929678702 L -0.372852706455571 5.795588262048846 L -0.4186378470232731 5.759983193544548 L -0.4174100860403662 5.758404395593938 Q -0.4010082260428087 5.7698926064477005 -0.3810553732624613 5.767040648186123 Q -0.3611025204821138 5.764188689924545 -0.34882491065304544 5.748400710418441 L -0.34023058377269755 5.737349124764168 L -0.33233659401964555 5.743487929678702 M -0.14615007620107423 5.574113844935508 L -0.19526051551734758 5.637265762959924 L -0.2031545052703997 5.63112695804539 L -0.19210465642423813 5.616917776489896 Q -0.17737152462935613 5.597972201082571 -0.18004839860910993 5.573721750660022 Q -0.18272527258886373 5.549471300237473 -0.2018463664800404 5.5333348889758325 L -0.2006186054971335 5.531756091025222 L -0.14615007620107423 5.574113844935508 M -0.11791157359421711 5.537801492071468 L -0.13571410784636617 5.560694062355319 L -0.2252680974276139 5.477117253669645 Q -0.20790131997089933 5.49062262448162 -0.18671940360156158 5.503294499596313 Q -0.16553748723222372 5.515966374711007 -0.14650458678500056 5.525700269130307 Q -0.1274716863377776 5.535434163549608 -0.11791157359421711 5.537801492071468 M -0.7759449503829998 5.843155507980793 L -0.8207582262590992 5.900781633178073 L -0.8839101442835158 5.851671193861799 L -0.8777713393689817 5.843777204108747 Q -0.8777713393689817 5.843777204108747 -0.8726402460294977 5.847767427303195 Q -0.8675091526900139 5.851757650497642 -0.8675091526900139 5.851757650497642 Q -0.8469847793320785 5.867718543275431 -0.8210241091970439 5.864471451324173 Q -0.7950634390620094 5.8612243593729145 -0.7783131473089153 5.841313866506432 L -0.7759449503829998 5.843155507980793 M -0.4358551581178069 5.405828475661708 L -0.43822335504372256 5.403986834187347 Q -0.42226246226593367 5.383462460829412 -0.4259042537048444 5.357194850448651 Q -0.42954604514375516 5.33092724006789 -0.4500704185016905 5.314966347290101 Q -0.4500704185016905 5.314966347290101 -0.45480681235352177 5.311283064341381 Q -0.459543206205353 5.30759978139266 -0.459543206205353 5.30759978139266 L -0.45419380026612405 5.299091911148154 L -0.39104188224170744 5.348202350464428 L -0.4358551581178069 5.405828475661708 M 0.3960294358682649 6.318952932581164 L 0.3123298959425188 6.452322295690607 Q 0.26930303354814056 6.478277817501875 0.21874977522855532 6.489541390348592 Q 0.16819651690896997 6.500804963195307 0.11176894539341486 6.493161065442399 Q 0.05534137387785981 6.4855171676894905 -0.00572802190413968 6.453399744087628 Q -0.09730917752335827 6.404105810024211 -0.14805319196188182 6.32657488072072 Q -0.19879720640040535 6.249043951417229 -0.20113180762546543 6.155732378516972 Q -0.2034664088505255 6.062420805616716 -0.15179924914318074 5.964178734141325 Q -0.10106302925038274 5.867706790079906 -0.023299364993255023 5.816520243787889 Q 0.054464299263872584 5.765333697495873 0.14777587216412935 5.762999096270813 Q 0.24108744506438629 5.760664495045753 0.33844445283279123 5.811866184845824 Q 0.4039391671497182 5.846310957984054 0.44752379452352464 5.891265159753037 Q 0.49110842189733095 5.936219361522021 0.516552597693765 5.9823668849446285 L 0.468622614907929 6.116470265775051 L 0.4606570415450595 6.112281036609591 Q 0.4821469918314356 6.024155092434853 0.4431415405373603 5.952232740072423 Q 0.4041360892432849 5.880310387709994 0.3244803556145899 5.838418096055389 Q 0.24659474939986592 5.797456744215332 0.1701911391474562 5.804164079036098 Q 0.09378752889504627 5.810871413856863 0.027690259205194523 5.860284478319078 Q -0.03840701048465722 5.909697542781293 -0.08495400121199487 5.998203913479843 Q -0.1315009919393325 6.086710284178393 -0.1349914733868505 6.16961424391051 Q -0.13848195483436848 6.2525182036426274 -0.10183014554627101 6.3192482184478775 Q -0.0651783362581736 6.3859782332531285 0.00823607531406162 6.426847832878063 Q 0.07107559851003215 6.459896196294473 0.13695690532539928 6.464602937449396 Q 0.20283821214076647 6.469309678604319 0.2672867535172112 6.434847590529905 Q 0.33173529489365605 6.4003855024554905 0.38894892621238086 6.315229173322977 L 0.3960294358682649 6.318952932581164 M 0.8525245831600986 6.044348293377609 L 0.6219044333752497 6.705267612593815 L 0.5605333537337448 6.683852884399508 L 0.7911535035185937 6.022933565183301 L 0.8525245831600986 6.044348293377609 M 0.5874162521508057 6.615916813180324 L 0.5633658651018143 6.684841256470015 L 0.4878322286199621 6.658484667923174 L 0.4911268021883171 6.649042963362943 Q 0.4911268021883171 6.649042963362943 0.49726391015246757 6.6511844361823735 Q 0.5034010181166181 6.653325909001804 0.5034010181166181 6.653325909001804 Q 0.52794944997322 6.661891800279528 0.5515115645111051 6.650519607944556 Q 0.5750736790489901 6.639147415609584 0.5845837407827362 6.614928441109818 L 0.5874162521508057 6.615916813180324 M 0.7699356278376718 6.092846380543498 L 0.7671031164696023 6.091858008472991 Q 0.774724837291302 6.066980119259554 0.7633526449563305 6.043418004721669 Q 0.7519804526213589 6.019855890183784 0.7274320207647569 6.011289998906061 Q 0.7274320207647569 6.011289998906061 0.7212949128006064 6.00914852608663 Q 0.715157804836456 6.007007053267199 0.715157804836456 6.007007053267199 L 0.7184523784048109 5.997565348706968 L 0.7939860148866631 6.0239219372538075 L 0.7699356278376718 6.092846380543498 M 0.6431223090561716 6.635354797233618 L 0.6459548204242411 6.6363431693041255 Q 0.6383330996025414 6.661221058517563 0.6497052919375129 6.684783173055448 Q 0.6610774842724845 6.708345287593333 0.6856259161290865 6.716911178871055 Q 0.6856259161290865 6.716911178871055 0.6912909388652253 6.718887923012068 Q 0.6969559616013643 6.720864667153082 0.6979001320573874 6.721194124509917 L 0.6946055584890325 6.730635829070149 L 0.6190719220071803 6.7042792405233085 L 0.6431223090561716 6.635354797233618 M 0.8256416847430377 6.112284364596793 L 0.8496920717920291 6.043359921307102 L 0.9252257082738813 6.069716509853942 L 0.9219311347055263 6.079158214414173 Q 0.9209869642495032 6.078828757057338 0.9153219415133642 6.076852012916325 Q 0.9096569187772253 6.074875268775312 0.9096569187772253 6.074875268775312 Q 0.8851084869206234 6.066309377497589 0.8615463723827383 6.077681569832561 Q 0.8379842578448533 6.0890537621675325 0.8284741961111072 6.113272736667299 L 0.8256416847430377 6.112284364596793 M 1.1895687832581956 6.1430892521056 L 1.3186235358046967 6.170817772534239 Q 1.3811955370393638 6.184261903651154 1.4213376783066394 6.216411685835145 Q 1.461479819573915 6.248561468019137 1.4767841996876785 6.29634248882587 Q 1.4920885798014418 6.3441235096326025 1.4794847068793338 6.4027847607901025 Q 1.4698217376390508 6.44775838667752 1.4445560062641851 6.479662819255034 Q 1.419290274889319 6.511567251832547 1.384708035593024 6.5297075033537855 Q 1.3501257962967286 6.547847754875023 1.3103478637048724 6.5520863960155005 Q 1.2705699311130163 6.556325037155978 1.2316037802278088 6.544884360375679 Q 1.1926376293426013 6.533443683595381 1.1596867945835538 6.5059074803588794 L 1.1617874400705719 6.496130605165963 Q 1.1617874400705719 6.496130605165963 1.1778829665267758 6.502145921292123 Q 1.1939784929829798 6.508161237418283 1.2202023090672618 6.512261416679943 Q 1.2464261251515438 6.5163615959416035 1.2772635201833153 6.513270468695035 Q 1.3081009152150869 6.510179341448468 1.3380734961258678 6.4920714869773635 Q 1.3680460770366487 6.473963632506259 1.3897887903816182 6.434653908309841 Q 1.395032562975213 6.424529539243737 1.400454003067376 6.408817824272829 Q 1.405875443159539 6.39310610930192 1.4082587884194764 6.377253044444551 Q 1.4217755547606088 6.3095825410647235 1.396379202630876 6.2611674060499105 Q 1.370982850501143 6.212752271035097 1.3084108492664759 6.199308139918181 L 1.1930437219900583 6.174520523171369 Q 1.1930437219900583 6.174520523171369 1.1921749873070926 6.166662705404927 Q 1.191306252624127 6.158804887638484 1.1904375179411613 6.150947069872043 Q 1.1895687832581956 6.1430892521056 1.1895687832581956 6.1430892521056 M 1.2022787210089874 6.145820091238724 L 1.0552335369177261 6.830201354742896 L 0.9916838481637672 6.816547159077279 L 1.1387290322550285 6.132165895573107 L 1.2022787210089874 6.145820091238724 M 1.0099516227768737 6.745806163815092 L 0.9946169107216423 6.817177352723385 L 0.9164019091783082 6.80037218882724 L 0.9185025546653263 6.790595313634324 Q 0.9185025546653263 6.790595313634324 0.9248575235407221 6.791960733200885 Q 0.931212492416118 6.793326152767447 0.931212492416118 6.793326152767447 Q 0.9566323679177016 6.798787831033693 0.9786057811755808 6.784586806077781 Q 1.00057919443346 6.770385781121869 1.0070185602189987 6.745175970168987 L 1.0099516227768737 6.745806163815092 M 1.126327382757672 6.204167278127504 L 1.1233943201997971 6.203537084481399 Q 1.1288559984660438 6.178117208979815 1.1141661297504855 6.156038763447586 Q 1.099476261034927 6.1339603179153555 1.0740563855333434 6.128498639649108 Q 1.0740563855333434 6.128498639649108 1.0681902604175932 6.127238252356897 Q 1.0623241353018433 6.125977865064686 1.0623241353018433 6.125977865064686 L 1.0634470932695697 6.115990925323068 L 1.1416620948129035 6.132796089219212 L 1.126327382757672 6.204167278127504 M 1.0676351864150826 6.758199972188498 L 1.0705682489729575 6.7588301658346035 Q 1.0660842582260024 6.7844601058848895 1.080285283181915 6.806433519142768 Q 1.0944863081378278 6.8284069324006476 1.119906183639411 6.833868610666895 Q 1.119906183639411 6.833868610666895 1.126261152514807 6.835234030233456 Q 1.1326161213902028 6.836599449800018 1.1326161213902028 6.836599449800018 L 1.130515475903185 6.846376324992935 L 1.052300474359851 6.829571161096791 L 1.0676351864150826 6.758199972188498 M 1.7933412524912922 6.23878921606312 L 1.752839611097992 6.9376165316743865 L 1.6879485032198032 6.9338556649735805 L 1.728450144613103 6.235028349362314 L 1.7933412524912922 6.23878921606312 M 2.0241809340954697 6.922290526520446 L 2.0223872899766233 6.953238593354659 L 1.7498446368882297 6.9374429532112725 L 1.7516382810070756 6.906494886377059 L 2.0241809340954697 6.922290526520446 M 2.000288741877057 6.591353730211848 L 1.9985529572459158 6.621303472309474 L 1.7689382678307852 6.60799579013739 L 1.7706740524619267 6.578046048039765 L 2.000288741877057 6.591353730211848 M 2.0628889313699235 6.254411277743393 L 2.061095287251077 6.285359344577606 L 1.7885526341626834 6.269563704434219 L 1.7903462782815296 6.238615637600006 L 2.0628889313699235 6.254411277743393 M 2.092658335916626 6.795039414777468 L 2.025382264186386 6.9534121718177735 L 1.8596603579128572 6.943807496858791 L 1.8973936925488541 6.914942371581947 Q 1.950304903587993 6.918008924430298 1.9847034638108028 6.903474859114711 Q 2.0191020240336126 6.888940793799125 2.041802628133092 6.860206100943299 Q 2.064503232232571 6.831471408087472 2.082675088550751 6.794460819900421 L 2.092658335916626 6.795039414777468 M 1.998668676221325 6.6193068228362995 L 1.994849950032814 6.685196255451076 L 1.9848667026669387 6.684617660574029 L 1.9857345949825094 6.6696427895252155 Q 1.9868917847366037 6.649676294793466 1.9737542009960967 6.63439055328508 Q 1.9606166172555897 6.619104811776695 1.9406501225238393 6.617947622022601 L 1.9407658414992488 6.615950972549426 L 1.998668676221325 6.6193068228362995 M 2.003991749090159 6.527460947070247 L 2.000173022901648 6.593350379685024 L 1.9422701881795712 6.58999452939815 L 1.9423859071549807 6.587997879924975 Q 1.9624102613744359 6.588156744942482 1.9772257702583795 6.574491069089829 Q 1.9920412791423232 6.560825393237176 1.9931984688964175 6.540858898505425 L 1.9940085017242835 6.5268823521932 L 2.003991749090159 6.527460947070247 M 2.0612688657141915 6.282364370367844 L 2.0566401066978144 6.362230349294846 L 2.046656859331939 6.361651754417799 L 2.0476983301106237 6.343681909159223 Q 2.049086957815537 6.319722115481123 2.0331279783283818 6.301267821299861 Q 2.0171689988412265 6.282813527118599 1.992268739914243 6.280368715189393 L 1.9923844588896524 6.278372065716218 L 2.0612688657141915 6.282364370367844 M 2.0639304021486082 6.236441432484818 L 2.0622524770051713 6.265392849845856 L 1.9410933135062456 6.247352420243418 Q 1.963056457711171 6.2486253289729214 1.9876889922206795 6.247047912211925 Q 2.012321526730188 6.2454704954509275 2.033517784149345 6.242692245746377 Q 2.0547140415685017 6.2399139960418255 2.0639304021486082 6.236441432484818 M 1.6951672200320098 6.861151537665806 L 1.6909434774295657 6.934029243436695 L 1.6110774985025638 6.929400484420317 L 1.611656093379611 6.919417237054442 Q 1.611656093379611 6.919417237054442 1.6181452041674298 6.919793323724523 Q 1.6246343149552487 6.920169410394603 1.6246343149552487 6.920169410394603 Q 1.6505907581065244 6.921673757074926 1.6701301662559307 6.904275149970594 Q 1.6896695744053372 6.886876542866262 1.6921722458222472 6.860977959202692 L 1.6951672200320098 6.861151537665806 M 1.7272213762204216 6.308079633596318 L 1.724226402010659 6.307906055133203 Q 1.7257307486909816 6.281949611981927 1.7078329792183558 6.262381274088669 Q 1.68993520974573 6.24281293619541 1.6639787665944545 6.2413085895150875 Q 1.6639787665944545 6.2413085895150875 1.6579888181749294 6.240961432588859 Q 1.6519988697554042 6.240614275662631 1.6519988697554042 6.240614275662631 L 1.6515791398958637 6.230573168809051 L 1.7314451188228657 6.235201927825428 L 1.7272213762204216 6.308079633596318 M 2.3865179355940573 6.239780724240283 L 2.448908885430442 6.936994729678007 L 2.384167584925511 6.942788175019957 L 2.321776635089126 6.245574169582234 L 2.3865179355940573 6.239780724240283 M 2.6429186529922486 6.558195033148808 L 2.6455925508423794 6.588075633381853 L 2.416507949055699 6.608575516899522 L 2.4138340512055683 6.5786949166664765 L 2.6429186529922486 6.558195033148808 M 2.655443337691465 6.215715643589107 L 2.6582063654699333 6.24659226382992 L 2.3862929033492213 6.27092473426611 L 2.3835298755707526 6.240048114025297 L 2.655443337691465 6.215715643589107 M 2.645414290985704 6.586083593366316 L 2.651296866255992 6.651820913879016 L 2.64133666617831 6.652712213162393 L 2.639999717253245 6.63777191304587 Q 2.638217118686491 6.617851512890507 2.62298045461684 6.604657041774596 Q 2.6077437905471887 6.591462570658685 2.5878233903918253 6.593245169225439 L 2.58764513053515 6.591253129209902 L 2.645414290985704 6.586083593366316 M 2.6372143375786363 6.494449752651644 L 2.6430969128489243 6.560187073164344 L 2.5853277523983698 6.56535660900793 L 2.5851494925416945 6.563364568992394 Q 2.6049807627687205 6.560585950417871 2.6176326589165786 6.544895841308505 Q 2.6302845550644363 6.529205732199139 2.6285019564976824 6.509285332043776 L 2.627254137500955 6.495341051935021 L 2.6372143375786363 6.494449752651644 M 2.65793897568492 6.2436042038066155 L 2.6639106808835455 6.3103375443270835 L 2.653950480805864 6.31122884361046 L 2.6526135318807986 6.2962885434939375 Q 2.6508309333140447 6.2763681433385745 2.6350962592405094 6.263218237186832 Q 2.6193615851669745 6.25006833103509 2.599441185011611 6.251850929601844 L 2.599173795226598 6.24886286957854 L 2.65793897568492 6.2436042038066155 M 2.6538389989813864 6.197787283449279 L 2.6564237669031794 6.226671863674556 L 2.533928896743747 6.226589494846305 Q 2.5558413369146473 6.224628636422876 2.5799764373199543 6.219456893155298 Q 2.6041115377252617 6.21428514988772 2.6246714381750427 6.208429341361556 Q 2.6452313386248236 6.202573532835391 2.6538389989813864 6.197787283449279 M 2.380649160180164 6.869811324667867 L 2.387155644948815 6.942520785234944 L 2.3074740443273614 6.949651179501959 L 2.3065827450439844 6.939690979424277 Q 2.3065827450439844 6.939690979424277 2.3130568750944773 6.939111634890082 Q 2.3195310051449707 6.938532290355887 2.3195310051449707 6.938532290355887 Q 2.345427525346943 6.936214912219108 2.362204991816407 6.916139638401149 Q 2.378982458285871 6.89606436458319 2.377661100156859 6.87007871445288 L 2.380649160180164 6.869811324667867 M 2.3312711798810817 6.318016240364297 L 2.3282831198577774 6.318283630149311 Q 2.3259657417209976 6.292387109947338 2.3053924578991545 6.275654208442043 Q 2.284819174077312 6.258921306936748 2.2589226538753393 6.261238685073527 Q 2.2589226538753393 6.261238685073527 2.2529465338287302 6.261773464643554 Q 2.246970413782121 6.26230824421358 2.246970413782121 6.26230824421358 L 2.245083094490976 6.252437174064236 L 2.3247646951124303 6.245306779797221 L 2.3312711798810817 6.318016240364297 M 2.439414340638486 6.864552658895943 L 2.442402400661791 6.86428526911093 Q 2.4457157988063387 6.890092659384565 2.4657910726242975 6.906870125854029 Q 2.485866346442256 6.923647592323493 2.5117628666442284 6.921330214186713 Q 2.5117628666442284 6.921330214186713 2.5177389866908375 6.920795434616687 Q 2.5237151067374466 6.92026065504666 2.5247111267452147 6.920171525118323 L 2.5256024260285916 6.930131725196005 L 2.445920825407138 6.93726211946302 L 2.439414340638486 6.864552658895943 M 3.1450140348387077 6.091823573377728 Q 3.248168969993479 6.063397188570389 3.338346075192268 6.085743098665226 Q 3.428523180391057 6.108089008760063 3.494172835566234 6.175054468329758 Q 3.5598224907414107 6.242019927899452 3.5887802098442143 6.3471029926832845 Q 3.617737928947018 6.452186057467117 3.5956576859999125 6.543327227480437 Q 3.5735774430528076 6.634468397493756 3.5075760482976435 6.699852385521201 Q 3.44157465354248 6.765236373548645 3.3384197183877085 6.7936627583559845 Q 3.236228848047468 6.8218234760155925 3.146051742848679 6.799477565920755 Q 3.05587463764989 6.777131655825917 2.990224982474713 6.710166196256223 Q 2.9245753272995363 6.643200736686529 2.8956176081967326 6.538117671902696 Q 2.866659889093929 6.433034607118864 2.888740132041034 6.341893437105544 Q 2.9108203749881394 6.250752267092224 2.976821769743303 6.18536827906478 Q 3.042823164498467 6.119984291037335 3.1450140348387077 6.091823573377728 M 3.330449703955744 6.764740813920068 Q 3.412395213190843 6.742159106362836 3.462455308708784 6.68479852027156 Q 3.5125154042267255 6.627437934180285 3.52681466906265 6.545701889346001 Q 3.5411139338985747 6.463965844511717 3.51454721912536 6.3675593630586595 Q 3.4879805043521457 6.271152881605603 3.4338311673563995 6.2082792042603 Q 3.3796818303606537 6.145405526914999 3.307305694433212 6.121784668585706 Q 3.2349295585057707 6.098163810256413 3.152984049270672 6.120745517813646 Q 3.072002604850104 6.143061558223145 3.021942509332163 6.2004221443144205 Q 2.9718824138142215 6.257782730405696 2.957583148978297 6.33951877523998 Q 2.9432838841423723 6.421254820074264 2.9698505989155866 6.517661301527321 Q 2.996417313688801 6.614067782980378 3.050566650684547 6.67694146032568 Q 3.104715987680293 6.739815137670982 3.1770921236077347 6.763435996000275 Q 3.249468259535176 6.787056854329568 3.330449703955744 6.764740813920068 M 3.7173873871447554 5.898531818731386 L 3.8435472515870677 5.835566045458144 Q 3.88381103811121 5.815470585902854 3.922274797718987 5.8108026959260926 Q 3.960738557326764 5.806134805949332 3.99404818893139 5.8168920566373155 Q 4.027357820536015 5.827649307325298 4.054843475485647 5.852489572460554 Q 4.082329130435279 5.877329837595809 4.1019780242226735 5.916698873308303 Q 4.12341318108165 5.959646912267389 4.122930181606973 6.009063677757529 Q 4.122447182132297 6.058480443247668 4.100279834500986 6.1002788726319475 Q 4.078112486869675 6.142077302016228 4.03516444791059 6.1635124588752035 Q 4.053501172083867 6.162184096502516 4.080997352326569 6.172489923595033 Q 4.108493532569271 6.182795750687549 4.130846110101891 6.193992280402071 Q 4.130846110101891 6.193992280402071 4.151633278533093 6.205411283362613 Q 4.172420446964295 6.216830286323154 4.203266680104139 6.232728710807432 Q 4.234112913243985 6.248627135291711 4.264959956021759 6.263407526080394 Q 4.295806998799533 6.2781879168690775 4.316373313260572 6.28580544333701 Q 4.344092776387222 6.296558645835351 4.369579410674395 6.302838094275453 Q 4.395066044961567 6.309117542715556 4.420558346714239 6.307570755286491 Q 4.446050648466912 6.306023967857427 4.471998422004692 6.2930735605884625 L 4.4764640796836455 6.3020210687049385 L 4.427252785043027 6.3265821859391815 Q 4.386094247707237 6.347124211262367 4.349868174766508 6.349557653123794 Q 4.313642101825778 6.351991094985221 4.283908234916029 6.343919716008038 Q 4.25417436800628 6.335848337030855 4.231373605429907 6.325993123895876 Q 4.226903089923383 6.323753817952971 4.206339204376128 6.312782190398254 Q 4.185775318828874 6.301810562843537 4.157388435964167 6.286361133040939 Q 4.12900155309946 6.27091170323834 4.101285328524525 6.255686365957619 Q 4.0735691039495885 6.240461028676897 4.053675876692107 6.229713493644056 Q 4.033782649434624 6.218965958611214 4.030653450507643 6.217174837712062 Q 4.002489040888954 6.203290817010884 3.9725318910952576 6.194772062627877 Q 3.9425747413015606 6.186253308244869 3.918416469387075 6.198310583978044 L 3.913950811708122 6.189363075861568 Q 3.913950811708122 6.189363075861568 3.9280427321726075 6.1828886818650135 Q 3.942134652637093 6.17641428786846 3.961372604725445 6.165695090163115 Q 3.984189560060387 6.153189629386189 4.008800874846196 6.1330828348999 Q 4.0334121896320045 6.112976040413612 4.047746014652792 6.08123424682419 Q 4.06207983967358 6.049492453234769 4.054510891481357 6.002976745960091 Q 4.052282920469451 5.9917947897282815 4.046704086922473 5.976138269800305 Q 4.041125253375495 5.960481749872329 4.033085450277522 5.946612302653863 Q 4.001824227248992 5.886215813229722 3.953764161459036 5.864938358582487 Q 3.90570409566908 5.843660903935253 3.854258352913128 5.865984334502449 Q 3.8283121986512043 5.876698674380223 3.8021403325915477 5.890319739938959 Q 3.775968466531891 5.903940805497696 3.758073450298939 5.912872120855602 Q 3.740178434065987 5.921803436213509 3.740178434065987 5.921803436213509 Q 3.7397318682980916 5.920908685401861 3.7341457480097575 5.915314468734242 Q 3.7285596277214235 5.909720252066624 3.7229735074330894 5.904126035399005 Q 3.7173873871447554 5.898531818731386 3.7173873871447554 5.898531818731386 M 3.729019147696174 5.892726463748747 L 4.041615185222909 6.5190520319020715 L 3.9834563824658145 6.548078806815268 L 3.6708603449390798 5.921753238661943 L 3.729019147696174 5.892726463748747 M 3.953541333844398 6.481422300261307 L 3.9861406349007575 6.546739109511582 L 3.9145605699689487 6.5824643709432085 L 3.9100949122899955 6.573516862826732 Q 3.9100949122899955 6.573516862826732 3.915910792565705 6.570614185335413 Q 3.921726672841414 6.567711507844093 3.921726672841414 6.567711507844093 Q 3.944990193944252 6.556100797878814 3.953281617253669 6.53128644115727 Q 3.9615730405630862 6.5064720844357256 3.9508570814094552 6.482761997564992 L 3.953541333844398 6.481422300261307 M 3.706143898430382 5.985730350608533 L 3.7034596459954394 5.987070047912219 Q 3.690954185218513 5.964253092577277 3.6661398284969686 5.955961669267859 Q 3.641325471775424 5.9476702459584425 3.6180619506725864 5.959280955923721 Q 3.6180619506725864 5.959280955923721 3.612246070396877 5.962183633415041 Q 3.6064301901211673 5.9650863109063605 3.6064301901211673 5.9650863109063605 L 3.601964532442214 5.9561388027898845 L 3.673544597374023 5.920413541358258 L 3.706143898430382 5.985730350608533 M 4.006331631731607 6.455074919955482 L 4.0090158841665495 6.453735222651796 Q 4.020626594131828 6.476998743754634 4.045888326259196 6.485066884180103 Q 4.071150058386564 6.493135024605572 4.0944135794894025 6.481524314640294 Q 4.0944135794894025 6.481524314640294 4.099782084359288 6.4788449200329215 Q 4.105150589229174 6.476165525425549 4.105150589229174 6.476165525425549 L 4.109616246908127 6.485113033542025 L 4.038930932787966 6.520391729205757 L 4.006331631731607 6.455074919955482 M 4.9607460406275345 5.595126107393474 L 5.060748428405769 5.72636833550109 Q 5.060636309538326 5.764170285574592 5.04779767158166 5.811669436887197 Q 5.034959033624992 5.8591685881998 5.001836977101328 5.908922275215369 Q 4.968714920577662 5.958675962230937 4.908263954903851 6.004737668116669 Q 4.823344690860303 6.068186218882641 4.731340271947414 6.081087261495613 Q 4.639335853034526 6.093988304108586 4.553749695562873 6.056739013521549 Q 4.46816353809122 6.019489722934512 4.402101354649841 5.932790311639178 Q 4.336039171208462 5.846090900343843 4.322532053518046 5.753291073987879 Q 4.30902493582763 5.660491247631914 4.3458765226931275 5.575208127698983 Q 4.382728109558626 5.489925007766052 4.467041298524731 5.425681049557005 Q 4.510788707893936 5.3923469202975935 4.5512413110862955 5.372838283877752 Q 4.591693914278655 5.353329647457911 4.629325042208248 5.34414279757634 Q 4.666956170137842 5.334955947694768 4.701538412458493 5.33249251186735 L 4.802903147239604 5.432523459792254 L 4.7957444802519165 5.4379781354892485 Q 4.748661014114027 5.400935629952471 4.697279491768857 5.390426626122764 Q 4.645897969423687 5.379917622293056 4.591809205757389 5.394729970015531 Q 4.537720442091093 5.409542317738005 4.485223550848047 5.449543272849299 Q 4.418409325629623 5.500453579354582 4.392958402525371 5.572649496920199 Q 4.3675074794211195 5.644845414485817 4.3843284422786555 5.72631967550453 Q 4.4011494051361915 5.807793936523243 4.461756912880576 5.8873346808308895 Q 4.52236442062496 5.966875425138536 4.596454719384002 6.004712280581292 Q 4.670545018143042 6.042549136024048 4.746603210213856 6.036769739955315 Q 4.82266140228467 6.030990343886582 4.890081702580536 5.980875444824376 Q 4.9250796300759 5.954208141416847 4.950929843207336 5.9213103226280674 Q 4.9767800563387725 5.888412503839289 4.993596260279371 5.851083355911319 Q 5.010412464219968 5.81375420798335 5.016319845535126 5.775308104851858 L 4.909839964270641 5.63391491234988 Q 4.882566585785668 5.5981215774114395 4.842000806188768 5.629031406361076 L 4.829274287099545 5.638728607600177 L 4.823213536325106 5.630774533169412 L 4.979113395168093 5.511983817990418 L 4.985174145942532 5.519937892421183 L 4.9732430342963845 5.529029018582841 Q 4.931881847256409 5.560544922609921 4.9607460406275345 5.595126107393474 M 4.908506859014218 5.046772926520017 L 5.4260908791285996 5.518054988688986 L 5.382328973355767 5.566116361985322 L 4.864744953241385 5.094834299816353 L 4.908506859014218 5.046772926520017 M 5.584949525074422 5.297544375320242 L 5.607871103108058 5.318415438073439 L 5.424071098862161 5.5202732059180475 L 5.401149520828524 5.4994021431648505 L 5.584949525074422 5.297544375320242 M 5.312734851801712 5.10783625305071 L 5.334917024092328 5.128034055715094 L 5.180067203665381 5.298097376609819 L 5.157885031374764 5.277899573945435 L 5.312734851801712 5.10783625305071 M 5.090287082993677 4.847133375904471 L 5.113208661027314 4.8680044386576675 L 4.929408656781416 5.069862206502276 L 4.906487078747779 5.048991143749079 L 5.090287082993677 4.847133375904471 M 5.529156238156312 5.16424355336151 L 5.609890883374497 5.316197220844377 L 5.49812970863157 5.438938574185788 L 5.499445493795195 5.391448904683851 Q 5.535128278502274 5.352260400303762 5.545482296717664 5.316381516447162 Q 5.555836314933054 5.280502632590562 5.5477926045075066 5.244777309322747 Q 5.53974889408196 5.209051986054931 5.522423637268184 5.1716376107917155 L 5.529156238156312 5.16424355336151 M 5.3334382126062865 5.126687535537469 L 5.382238991645643 5.171122701399114 L 5.375506390757515 5.1785167588293195 L 5.364415304612207 5.168417857497127 Q 5.3496271897517955 5.154952655720871 5.329480165234618 5.155542064835373 Q 5.309333140717441 5.156131473949875 5.295867938941185 5.1709195888102855 L 5.294389127455144 5.16957306863266 L 5.3334382126062865 5.126687535537469 M 5.265412884248397 5.06474760736669 L 5.314213663287752 5.109182773228335 L 5.27516457813661 5.152068306323527 L 5.273685766650568 5.150721786145901 Q 5.286411562683805 5.135260411196677 5.2851158206533855 5.1151464595066045 Q 5.283820078622967 5.095032507816531 5.269031963762556 5.081567306040275 L 5.258680283360269 5.072141664796895 L 5.265412884248397 5.06474760736669 M 5.1109904437982525 4.865984658391229 L 5.1701429032398964 4.919845465496254 L 5.163410302351768 4.92723952292646 L 5.150100998977398 4.915120841327829 Q 5.132355261144905 4.898962599196321 5.107970239132228 4.899750445273447 Q 5.08358521711955 4.900538291350571 5.066014309156209 4.918350174837272 L 5.064535497670168 4.917003654659647 L 5.1109904437982525 4.865984658391229 M 5.076977779619307 4.83501469430584 L 5.098420546166904 4.854539236881411 L 5.008149352158514 4.937340876552977 Q 5.022961074112396 4.921073950206525 5.037237729059248 4.900938729236083 Q 5.051514384006101 4.880803508265641 5.062695222899087 4.862582947306959 Q 5.073876061792074 4.844362386348276 5.076977779619307 4.83501469430584 M 5.330372134381705 5.514750158272925 L 5.384348753622205 5.563898144756259 L 5.33048794651718 5.623050604197903 L 5.323093889086975 5.616318003309775 Q 5.323093889086975 5.616318003309775 5.327470079664258 5.611511865980142 Q 5.331846270241541 5.606705728650508 5.331846270241541 5.606705728650508 Q 5.349351032550675 5.587481179331974 5.348127337947831 5.561346861443057 Q 5.346903643344988 5.53521254355414 5.328352354115267 5.516968375501986 L 5.330372134381705 5.514750158272925 M 4.9207413527483235 5.141764069070627 L 4.918721572481885 5.143982286299688 Q 4.899497023163351 5.126477523990555 4.873026075230027 5.128070921464908 Q 4.846555127296703 5.129664318939262 4.8290503649875705 5.148888868257796 Q 4.8290503649875705 5.148888868257796 4.825010804454694 5.153325302715919 Q 4.820971243921817 5.1577617371740425 4.820971243921817 5.1577617371740425 L 4.812903926402798 5.151768542028934 L 4.866764733507823 5.092616082587291 L 4.9207413527483235 5.141764069070627" fill="#3e7742" fill-rule="nonzero"></path></g><g transform="matrix(1,0,0,1,0,0)" clip-path="url(#SvgjsClipPath26967)"><g clip-path="url(#SvgjsClipPath26965b9812868-22a2-418f-aa6a-0c6288cec150)"><path d=" M 0.5508107411306162 2.693459826312631 C 0.5884321473607894 2.6947332781676177 0.625871631897393 2.7010641531038364 0.6515589750294069 2.705794117136643 C 0.9228042201415356 2.7557498141908288 1.1748021500740111 2.9409460982445825 1.2676185981331711 3.200657507984405 C 1.2897402760712227 3.2625836524754632 1.3030933283792243 3.3281118464991986 1.3342383223183232 3.3860357137317285 C 1.396928537922374 3.5025747506323515 1.5204897521947802 3.57046792667249 1.6173812461898973 3.660591933666822 C 1.6373926324825427 3.6792207150883396 1.657731477823613 3.7021428484780965 1.657003791049335 3.7294674868522355 C 1.655985029565346 3.768398729276109 1.610140762785831 3.7933947699725588 1.5716461324265243 3.7875368914396215 C 1.5331515020672175 3.7816790129066833 1.501569896063552 3.755045676968108 1.4722077347214342 3.7294674868522355 C 1.4024953417456005 3.66877840987745 1.3328193331084812 3.6080893329026638 1.2631069401326476 3.5474002559278777 C 1.2498630408407878 3.535902804894285 1.2361825294843614 3.5240778948122675 1.2194821180146809 3.518656628343896 C 1.1989977353187546 3.5119982943592523 1.1768396730419892 3.5158186499242117 1.155372913200788 3.51738317648891 C 1.1056719065175997 3.520985226021586 1.055825362479556 3.51207106303668 1.0076524980223516 3.499372928825528 C 0.8676819469899761 3.4624792093696333 0.7358978721682282 3.392402973006661 0.631001823656053 3.2926371162531454 C 0.5261057751438777 3.1928712594996296 0.4488982083929806 3.0632338606620024 0.41680722164732037 2.922099010790782 C 0.4047640055330192 2.8691961823007706 0.3889368181924725 2.7661921194017176 0.434126166875137 2.7225309129450372 C 0.45981351000715076 2.6977167939421567 0.5054394707543821 2.6919316840866467 0.5507743567919022 2.6934598263126306 Z" fill="#431a10" transform="matrix(1,0,0,1,0,0)" fill-rule="nonzero"></path></g><g clip-path="url(#SvgjsClipPath26965b9812868-22a2-418f-aa6a-0c6288cec150)"><path d=" M 1.1114570163731103 2.3701849768396244 C 1.1114206320343964 2.4340758756212337 1.11593229003492 2.5147763388886655 1.0260265890728715 2.501350517903236 C 0.9331373723362836 2.48748808485324 0.8490531655684592 2.437168544411915 0.7783947797860642 2.3752787842595704 C 0.6372963142535579 2.2517539543258778 0.5404048202584407 2.073579847643907 0.5328004934672355 1.886200503267319 C 0.5306902018218292 1.8344983579548666 0.5338920236286525 1.7721719857379548 0.5620535017932116 1.7268370997004348 C 0.5902149799577705 1.6815022136629143 0.6706971371929186 1.6998399203747205 0.7121752833267652 1.7136659690860025 C 0.8508723825041542 1.7598376949139425 0.96370021685596 1.8693545544427832 1.0297741759604033 1.9997560243934025 C 1.0874797371606495 2.113602620229197 1.111529785050538 2.2422212575828357 1.11145701637311 2.370184976839624 Z" fill="#431a10" transform="matrix(1,0,0,1,0,0)" fill-rule="nonzero"></path></g><g clip-path="url(#SvgjsClipPath26965b9812868-22a2-418f-aa6a-0c6288cec150)"><path d=" M 1.8153120487935164 2.9974509762672703 C 1.7471277980436668 3.001671559558083 1.6456154930318843 2.9597204170209555 1.6130151255442293 2.9453486032289646 C 1.55061598464989 2.917805658822542 1.4928376547722155 2.8792746441245214 1.4444100999440141 2.8311745483447446 C 1.3517755735784236 2.7391221713985763 1.294397471426602 2.6107218400772214 1.2946885461363133 2.480138448433032 C 1.2948340834911691 2.418976375054965 1.3201939675747576 2.3744055601304375 1.3862679266792013 2.3743327914530092 C 1.433603951345986 2.3742964071142953 1.4798120615126393 2.388922911277283 1.5234732679693201 2.407187849311661 C 1.6245489609165358 2.4495392195746413 1.7187116295081106 2.514485264178954 1.7802739306120303 2.605155036253994 C 1.8434735269580755 2.698262559022866 1.868542336331953 2.8121091548586605 1.87989425001069 2.9241001494200463 C 1.8851335947854921 2.975802294732499 1.8562444298466547 2.9949404568960105 1.8153484331322307 2.9974509762672694 Z" fill="#431a10" transform="matrix(1,0,0,1,0,0)" fill-rule="nonzero"></path></g><g clip-path="url(#SvgjsClipPath26965b9812868-22a2-418f-aa6a-0c6288cec150)"><path d=" M 1.8599920167341863 2.1939028557707765 C 1.8467117331036125 2.210894341950168 1.8220795357943016 2.215769843337831 1.7948640504363045 2.2140597794182773 C 1.567352780458284 2.1996151969488587 1.3552320857562439 2.0420710103176694 1.2756231526502295 1.828458557728359 C 1.2580859013901295 1.7814136077712854 1.2398209633557513 1.7157034920539809 1.2581222857288432 1.6660752540482207 C 1.2793707395377611 1.6085879988802578 1.3338380945924704 1.6144458774131958 1.3905612786474413 1.6216135921398342 C 1.5203442148399247 1.638059313238517 1.643468817047764 1.7027142831331186 1.7306820769449838 1.8002606952250861 C 1.8178953368422035 1.897807107317053 1.868433183315811 2.027335353138539 1.8702887845902203 2.158173435153726 C 1.8705070906225032 2.1736367791071336 1.8666867350575438 2.1853161518342956 1.8599920167341863 2.1939028557707765 Z" fill="#431a10" transform="matrix(1,0,0,1,0,0)" fill-rule="nonzero"></path></g><g clip-path="url(#SvgjsClipPath26965b9812868-22a2-418f-aa6a-0c6288cec150)"><path d=" M 1.0506224020434685 4.578859874128245 C 1.024789521556599 4.578423262063678 0.998410875989021 4.5734022233211595 0.9790180234545119 4.568745027965781 C 0.7049711842614129 4.502852990554906 0.4168436059860344 4.496121887892834 0.13999517271196502 4.54906110072156 C 0.11467167296709023 4.553900217770509 0.08792918401237332 4.559139562545311 0.06369721442891554 4.550298168237832 C 0.03986547257131068 4.541602311285209 0.02178245623050211 4.518862099589022 0.01868978743982056 4.493684137199003 C 0.010758001600190236 4.429138320320543 0.07166538460725978 4.415530577641545 0.11932886832246951 4.403851204914383 C 0.3007411811499777 4.359462311683424 0.49201364976895295 4.345527109956 0.6790291507584019 4.360590226183555 C 0.8015352192081051 4.370486766313735 0.9230589105125331 4.3926448285905 1.0411988583165683 4.42659141661057 C 1.064739525464462 4.433358903611356 1.0886804203382083 4.4408176930477055 1.1082551945662868 4.455553350226835 C 1.1278299687943654 4.470289007405965 1.1425292416347812 4.493720521537717 1.140346181311947 4.518134412814744 C 1.1359436763275654 4.567216885739796 1.0941016868065798 4.579551176563808 1.0506587863821824 4.578859874128245 Z" fill="#431a10" transform="matrix(1,0,0,1,0,0)" fill-rule="nonzero"></path></g><g clip-path="url(#SvgjsClipPath26965b9812868-22a2-418f-aa6a-0c6288cec150)"><path d=" M 0.368707125867544 3.989615508656625 C 0.47178395744402435 3.9901248893986203 0.5745697143107934 4.005042468271318 0.672407201112472 4.037169839355692 C 0.7134851195204657 4.0506684290185495 0.7812327582057486 4.089199443716571 0.7511065257506389 4.144394485545558 C 0.7352065697326643 4.173538340855392 0.6959114839216518 4.179032376001191 0.6627653513532883 4.176922084355786 C 0.6202684437354524 4.174229643290957 0.5785356072306085 4.164878868241484 0.5365480803547672 4.157893075208415 C 0.396504760644964 4.134643482770232 0.25205893595077883 4.1382091479641945 0.11336183677338983 4.168335380419304 C 0.09575181683586198 4.172155735984263 0.07770518483376729 4.176449087952504 0.05991324320266992 4.173756646887675 C 0.032406683134961096 4.169645216613004 0.008465788261214526 4.147487154336239 0.0022076820024236336 4.120380821994383 C -0.017730935612793878 4.034149939242439 0.10241015082050578 4.017776986821183 0.16040678673046324 4.007625756320005 C 0.22906403388359362 3.995582540205704 0.2989583485529966 3.989288049608199 0.3687435102062579 3.989615508656624 Z" fill="#431a10" transform="matrix(1,0,0,1,0,0)" fill-rule="nonzero"></path></g><g clip-path="url(#SvgjsClipPath26965b9812868-22a2-418f-aa6a-0c6288cec150)"><path d=" M 1.1486054262000027 3.98732329531765 C 1.1566827493944887 3.990597885801901 1.1779312032034064 3.9935450172377265 1.1910295651404108 4.005479080335886 C 1.2391296609201874 4.049322208486136 1.2862837638934024 4.0945843258462284 1.3303815824146499 4.142429731255008 C 1.3602531244987623 4.1748481770490935 1.357851758143645 4.195696403132159 1.3316914186083504 4.2250221801355625 C 1.308478210508882 4.251036982316002 1.2792615865216197 4.256822092171511 1.2470614467598176 4.236446862491728 C 1.1830977793007806 4.195914709164442 1.1296855700687745 4.1429027276582895 1.0866428973702302 4.081194889199514 C 1.0583722661895294 4.040662735872228 1.088607651660781 3.9893244339469143 1.1486054262000027 3.9873232953176503 Z" fill="#431a10" transform="matrix(1,0,0,1,0,0)" fill-rule="nonzero"></path></g><g clip-path="url(#SvgjsClipPath26965b9812868-22a2-418f-aa6a-0c6288cec150)"><path d=" M 1.7059043422808173 3.4389749265604537 C 1.6526376704036672 3.438210855447462 1.615307338883205 3.399425150378444 1.6165444063994778 3.346194862840007 C 1.6178178582544644 3.291327280059445 1.653001513790806 3.257817304103943 1.70947000747478 3.2575989980716593 C 1.7613904588195157 3.25741707637809 1.804833359243913 3.2970760055762414 1.8058521207279024 3.345612713420585 C 1.8069072665506056 3.395786716507054 1.7598259322548184 3.4397753820121593 1.7059043422808173 3.4389749265604537 Z" fill="#431a10" transform="matrix(1,0,0,1,0,0)" fill-rule="nonzero"></path></g><g clip-path="url(#SvgjsClipPath26965b9812868-22a2-418f-aa6a-0c6288cec150)"><path d=" M 1.306913683944184 0.7717118241218309 C 1.2552115386317313 0.7732399663478148 1.2162075275304298 0.7391842253116039 1.2139880828688816 0.6906475174672605 C 1.211695869529906 0.6404007457033638 1.252300791534619 0.5967395392466831 1.3029114066856546 0.5950658596658437 C 1.354395245965824 0.5933921800850043 1.3967466162288045 0.6335968743638645 1.3974379186643686 0.6848260232730364 C 1.398020068083791 0.7276503899392973 1.3535584061754045 0.7702928349119889 1.306913683944184 0.771675439783117 Z" fill="#431a10" transform="matrix(1,0,0,1,0,0)" fill-rule="nonzero"></path></g><g clip-path="url(#SvgjsClipPath26965b9812868-22a2-418f-aa6a-0c6288cec150)"><path d=" M 1.3755709310973143 1.3255542280248254 C 1.3748068599843224 1.375509925079011 1.3384225212704217 1.4102205842120719 1.2870114506676804 1.4100386625185024 C 1.2394207356298985 1.4098931251636466 1.1999073437866026 1.3680147513039473 1.2027453222062867 1.3207151109758766 C 1.2053286102549734 1.27774520695476 1.246515681679109 1.2380862777566084 1.288575977232378 1.2380498934178945 C 1.336421382641157 1.2380498934178945 1.3762986178715921 1.278145434680613 1.3755709310973143 1.3255178436861115 Z" fill="#431a10" transform="matrix(1,0,0,1,0,0)" fill-rule="nonzero"></path></g><g clip-path="url(#SvgjsClipPath26965b9812868-22a2-418f-aa6a-0c6288cec150)"><path d=" M 2.978737663509201 3.51869301268261 C 2.9992220462051273 3.512034678697966 3.0213801084818925 3.5158550342629256 3.042846868323094 3.5174195608276237 C 3.092547875006282 3.5210216103603 3.142394419044326 3.512107447375394 3.1905672835015304 3.499409313164242 C 3.3305378345339056 3.462515593708347 3.4623219093556536 3.392439357345375 3.567217957867828 3.2926735005918593 C 3.672114006380004 3.192944028177058 3.7493215731309006 3.0632702450007163 3.78141255987656 2.9221353951294957 C 3.7934557759908616 2.8692325666394844 3.8092829633314085 2.7662285037404315 3.7640936146487443 2.722567297283751 C 3.73840627151673 2.6977531782808706 3.692780310769499 2.6919680684253606 3.6474454247319787 2.6934962106513445 C 3.6098240185018056 2.694769662506331 3.5723845339652023 2.70110053744255 3.546697190833188 2.705830501475357 C 3.27545194572106 2.755786198529542 3.0234540157885847 2.940982482583296 2.9306375677294243 3.2006938923231183 C 2.908515889791373 3.262620036814177 2.895162837483371 3.328148230837912 2.8640178435442727 3.386072098070442 C 2.801327627940222 3.5026111349710654 2.6777664136678156 3.570504311011204 2.580874919672699 3.6606283180055357 C 2.5608635333800533 3.6792570994270526 2.5405246880389827 3.7021792328168095 2.541252374813261 3.7295038711909494 C 2.5422711362972503 3.768435113614823 2.588115403076765 3.7934311543112726 2.626610033436072 3.7875732757783354 C 2.665104663795379 3.781715397245397 2.696686269799044 3.755082061306822 2.7260484311411624 3.7295038711909494 C 2.7957608241169956 3.6688147942161637 2.8654368327541153 3.6081257172413777 2.935149225729949 3.5474366402665916 C 2.9483931250218087 3.535902804894285 2.962073636378235 3.5241142791509814 2.9787740478479154 3.51869301268261 Z" fill="#431a10" transform="matrix(1,0,0,1,0,0)" fill-rule="nonzero"></path></g><g clip-path="url(#SvgjsClipPath26965b9812868-22a2-418f-aa6a-0c6288cec150)"><path d=" M 3.1721931924510103 2.5013505179032363 C 3.265082409187598 2.48748808485324 3.3491666159554225 2.4371685444119158 3.419825001737817 2.375278784259571 C 3.560923467270323 2.251753954325878 3.657814961265441 2.073579847643907 3.6654192880566456 1.8862005032673195 C 3.667529579702052 1.8344983579548668 3.664327757895229 1.7721719857379554 3.6361662797306704 1.726837099700435 C 3.608223107598395 1.6818660570500539 3.5275226443309626 1.6998399203747208 3.4860444981971166 1.713665969086003 C 3.347347399019728 1.759837694913943 3.234519564667922 1.8693545544427836 3.168445605563479 1.9997560243934032 C 3.1107400443632325 2.113602620229198 3.0866899964733445 2.2422212575828366 3.0867627651507723 2.370184976839625 C 3.086799149489486 2.4340758756212337 3.0822874914889624 2.514776338888666 3.1721931924510107 2.5013505179032363 Z" fill="#431a10" transform="matrix(1,0,0,1,0,0)" fill-rule="nonzero"></path></g><g clip-path="url(#SvgjsClipPath26965b9812868-22a2-418f-aa6a-0c6288cec150)"><path d=" M 2.5852410403183663 2.9453486032289646 C 2.6476401812127053 2.917805658822542 2.7054185110903797 2.8792746441245214 2.753846065918581 2.8311745483447446 C 2.8464805922841725 2.7391221713985763 2.9038586944359936 2.6107218400772214 2.903567619726282 2.480138448433032 C 2.9034220823714265 2.418976375054965 2.878062198287838 2.3744055601304375 2.8119882391833944 2.3743327914530092 C 2.76465221451661 2.3742964071142953 2.718444104349956 2.388922911277283 2.6747828978932757 2.407187849311661 C 2.57370720494606 2.4495392195746413 2.4795445363544855 2.514485264178954 2.417982235250565 2.605155036253994 C 2.35478263890452 2.698262559022866 2.3297138295306423 2.8121091548586605 2.3183619158519053 2.9241001494200463 C 2.3131225710771033 2.975802294732499 2.342011736015941 2.9949404568960105 2.382907732730365 2.9974509762672694 C 2.4510919834802145 3.001671559558082 2.5526042884919975 2.9597204170209546 2.5852046559796524 2.9453486032289637 Z" fill="#431a10" transform="matrix(1,0,0,1,0,0)" fill-rule="nonzero"></path></g><g clip-path="url(#SvgjsClipPath26965b9812868-22a2-418f-aa6a-0c6288cec150)"><path d=" M 2.80765850287644 1.6216135921398342 C 2.6778755666839573 1.6380593132385175 2.5547509644761175 1.7027142831331186 2.467537704578898 1.8002606952250861 C 2.380324444681678 1.8978071073170537 2.32978659820807 2.0273353531385396 2.3279309969336612 2.1581734351537265 C 2.327712690901378 2.173636779107134 2.3315330464663373 2.185316151834296 2.3382277647896954 2.193902855770777 C 2.351508048420269 2.2108943419501683 2.3761402457295797 2.215769843337831 2.403355731087577 2.2140597794182777 C 2.6308670010655972 2.1996151969488587 2.8429876957676377 2.04207101031767 2.9225966288736522 1.8284585577283594 C 2.9401338801337524 1.7814136077712857 2.9583988181681304 1.7157034920539813 2.940097495795038 1.666075254048221 C 2.91884904198612 1.6085879988802583 2.864381686931411 1.6144458774131962 2.80765850287644 1.6216135921398345 Z" fill="#431a10" transform="matrix(1,0,0,1,0,0)" fill-rule="nonzero"></path></g><g clip-path="url(#SvgjsClipPath26965b9812868-22a2-418f-aa6a-0c6288cec150)"><path d=" M 4.078890913201412 4.403851204914383 C 3.897478600373904 4.359462311683424 3.7062061317549277 4.345527109956 3.5191906307654794 4.360590226183555 C 3.396684562315776 4.370486766313735 3.275160871011348 4.3926448285905 3.1570209232073134 4.42659141661057 C 3.1334802560594195 4.433358903611356 3.109539361185673 4.4408176930477055 3.089964586957595 4.455553350226835 C 3.0703898127295166 4.4702526230672515 3.0556905398891003 4.493720521537717 3.057873600211934 4.518134412814744 C 3.0622761051963163 4.567216885739796 3.104118094717302 4.579551176563808 3.147560995141699 4.578859874128245 C 3.1733938756285687 4.578423262063678 3.1997725211961465 4.5734022233211595 3.219165373730655 4.568745027965781 C 3.493212212923754 4.502852990554906 3.781339791199132 4.496121887892834 4.058188224473201 4.54906110072156 C 4.083511724218077 4.553900217770509 4.1102542131727935 4.559139562545311 4.134486182756252 4.550298168237832 C 4.158317924613857 4.541602311285209 4.176400940954665 4.518862099589022 4.179493609745346 4.493684137199003 C 4.1874253955849765 4.429138320320543 4.126518012577907 4.415530577641545 4.0788545288626965 4.403851204914383 Z" fill="#431a10" transform="matrix(1,0,0,1,0,0)" fill-rule="nonzero"></path></g><g clip-path="url(#SvgjsClipPath26965b9812868-22a2-418f-aa6a-0c6288cec150)"><path d=" M 4.0378493791321315 4.007625756320006 C 3.969192131979002 3.9955825402057044 3.8992978173095985 3.9892880496082 3.8295126556563375 3.989615508656625 C 3.7264358240798567 3.9901248893986203 3.623650067213088 4.005042468271318 3.525812580411409 4.037169839355692 C 3.484734662003416 4.0506684290185495 3.4169870233181325 4.089199443716571 3.4471132557732425 4.144394485545558 C 3.4630132117912167 4.173538340855392 3.5023082976022293 4.179032376001191 3.5354544301705926 4.176922084355786 C 3.5779513377884284 4.174229643290957 3.619684174293272 4.164878868241484 3.6616717011691136 4.157893075208415 C 3.801715020878917 4.134643482770232 3.946160845573102 4.1382091479641945 4.084857944750491 4.168335380419304 C 4.102467964688018 4.172155735984263 4.120514596690113 4.176449087952504 4.138306538321211 4.173756646887675 C 4.165813098388919 4.169645216613004 4.189753993262667 4.147487154336239 4.196012099521457 4.120380821994383 C 4.215950717136675 4.034149939242439 4.095809630703375 4.017776986821183 4.037812994793417 4.007625756320005 Z" fill="#431a10" transform="matrix(1,0,0,1,0,0)" fill-rule="nonzero"></path></g><g clip-path="url(#SvgjsClipPath26965b9812868-22a2-418f-aa6a-0c6288cec150)"><path d=" M 3.049614355323879 3.98732329531765 C 3.041537032129393 3.990597885801901 3.0202885783204754 3.9935450172377265 3.0071902163834707 4.005479080335886 C 2.9590901206036944 4.049322208486136 2.9119360176304796 4.0945843258462284 2.867838199109232 4.142429731255008 C 2.83796665702512 4.1748481770490935 2.840368023380237 4.195696403132159 2.8665283629155316 4.2250221801355625 C 2.889741571015 4.251036982316002 2.9189581950022623 4.256822092171511 2.951158334764064 4.236446862491728 C 3.0151220022231016 4.195914709164442 3.0685342114551077 4.1429027276582895 3.111576884153652 4.081194889199514 C 3.1398475153343526 4.040662735872228 3.1096121298631014 3.9893244339469143 3.0496143553238797 3.9873232953176503 Z" fill="#431a10" transform="matrix(1,0,0,1,0,0)" fill-rule="nonzero"></path></g><g clip-path="url(#SvgjsClipPath26965b9812868-22a2-418f-aa6a-0c6288cec150)"><path d=" M 2.5816753751244037 3.346194862840007 C 2.580401923269417 3.291327280059445 2.5452182677330755 3.257817304103943 2.4887497740491016 3.2575989980716593 C 2.436829322704366 3.25741707637809 2.3933864222799683 3.2970760055762414 2.3923676607959794 3.345612713420585 C 2.3913125149732766 3.395786716507054 2.4383938492690636 3.4397753820121593 2.492315439243064 3.4389749265604537 C 2.5455821111202144 3.438210855447462 2.5829124426406764 3.399425150378444 2.5816753751244037 3.346194862840007 Z" fill="#431a10" transform="matrix(1,0,0,1,0,0)" fill-rule="nonzero"></path></g><g clip-path="url(#SvgjsClipPath26965b9812868-22a2-418f-aa6a-0c6288cec150)"><path d=" M 2.891306097579698 0.7717118241218309 C 2.9430082428921507 0.7732399663478148 2.9820122539934517 0.7391842253116039 2.984231698655 0.6906475174672605 C 2.986523911993975 0.6404007457033638 2.9459189899892624 0.5967395392466831 2.8953083748382267 0.5950658596658437 C 2.843824535558057 0.5933921800850043 2.801473165295077 0.6335968743638645 2.8007818628595125 0.6848260232730364 C 2.80019971344009 0.7276503899392973 2.8446613753484766 0.7702928349119889 2.8913060975796974 0.771675439783117 Z" fill="#431a10" transform="matrix(1,0,0,1,0,0)" fill-rule="nonzero"></path></g><g clip-path="url(#SvgjsClipPath26965b9812868-22a2-418f-aa6a-0c6288cec150)"><path d=" M 2.909643804291504 1.2380498934178945 C 2.8617983988827245 1.2380498934178945 2.8219211636522896 1.278145434680613 2.8226488504265674 1.3255178436861115 C 2.8234129215395596 1.3754735407402972 2.85979726025346 1.4101841998733582 2.911208330856202 1.4100022781797885 C 2.958799045893984 1.409856740824933 2.9983124377372796 1.3679783669652334 2.9954744593175953 1.3206787266371627 C 2.992891171268908 1.277708822616046 2.951704099844773 1.2380498934178945 2.909643804291504 1.2380135090791806 Z" fill="#431a10" transform="matrix(1,0,0,1,0,0)" fill-rule="nonzero"></path></g><g clip-path="url(#SvgjsClipPath26965b9812868-22a2-418f-aa6a-0c6288cec150)"><path d=" M 2.1804288877875084 3.2991499128829336 C 2.149538584219407 2.787804416597776 2.155432847091059 2.1303394160375917 2.1702776572863303 1.549645370163739 C 2.172206027238167 1.4736384865904009 2.177372603335541 1.4455497771032695 2.2517421916667537 1.4172791459225689 C 2.393604728312252 1.3633575559485682 2.481836749693461 1.2524217072098853 2.5364860264417395 1.1134335333227854 C 2.6590284792301566 0.8018744409156547 2.5443450436039416 0.416091297532167 2.3528178846139696 0.1587084854700345 C 2.2997695187691027 0.08743156592950306 2.2140844010978666 0.0004729964032807074 2.0991098907619405 0 C 1.9841353804260147 0.0004729964032807074 1.898450262754779 0.08743156592950306 1.845438281248626 0.15870848547003427 C 1.6539111222586533 0.41609129753216684 1.5391913022937247 0.8018744409156546 1.6617701394208557 1.1134335333227852 C 1.716455800507848 1.2524217072098853 1.804651437550343 1.363357555948568 1.9465139741958415 1.4172791459225687 C 2.0208471781883404 1.4455497771032693 2.026050138624428 1.4736384865904006 2.0279785085762647 1.549645370163739 C 2.042823318771536 2.1303394160375917 2.0486811973044743 2.787804416597776 2.017827278075087 3.2991499128829336 C 2.0018545533796845 3.563882361365274 1.9534633828901964 3.8246489169277997 1.9041626039328614 4.081813422957649 C 1.869779403848225 4.2612609814946065 1.732246603509681 4.60782180774451 1.9678351966821872 4.713445543030963 C 2.012114936897004 4.73327500763004 2.053738620385707 4.743389853792503 2.0991098907619405 4.743389853792503 C 2.144481161138175 4.743389853792503 2.1861048446268767 4.73327500763004 2.230384584841694 4.713445543030963 C 2.4659731780142002 4.607858192083224 2.32847676201437 4.2612609814946065 2.29405717759102 4.081813422957649 C 2.244756398633685 3.8246489169277997 2.196365228144197 3.563882361365275 2.1803925034487945 3.299149912882934 Z" fill="#3e7742" transform="matrix(1,0,0,1,0,0)" fill-rule="nonzero"></path></g></g></g><defs><clipPath id="SvgjsClipPath26967"><path d=" M 0 0 h 4.198219781523882 v 4.743389853792503 h -4.198219781523882 Z"></path></clipPath><clipPath id="SvgjsClipPath26965b9812868-22a2-418f-aa6a-0c6288cec150"><path d=" M 0 0 L 4.198219781523882 0 L 4.198219781523882 4.743389853792503 L 0 4.743389853792503 Z"></path></clipPath></defs></svg>